<?xml version="1.0" standalone="no"?><!DOCTYPE svg PUBLIC "-//W3C//DTD SVG 1.1//EN" "http://www.w3.org/Graphics/SVG/1.1/DTD/svg11.dtd"><svg t="1498621767810" class="icon" style="" viewBox="0 0 1024 1024" version="1.1" xmlns="http://www.w3.org/2000/svg" p-id="1948" xmlns:xlink="http://www.w3.org/1999/xlink" width="200" height="200"><defs><style type="text/css"></style></defs><path d="M560.298991 725.508144 631.621865 725.508144 631.621865 600.155891 768.434896 600.155891 768.434896 528.935345 631.621865 528.935345 631.621865 403.583092 560.298991 403.583092 560.298991 528.935345 423.48596 528.935345 423.48596 600.155891 560.298991 600.155891Z" p-id="1949"></path><path d="M790.12851 227.168982l0-145.510942L66.052963 81.658039l0 715.172979 167.818527 0 0 145.510942 724.075547 0L957.947037 227.168982 790.12851 227.168982zM233.87149 725.508144l-96.495653 0L137.375837 152.878585l581.532128 0 0 74.290397L233.87149 227.168982 233.87149 725.508144zM886.726491 871.019087 305.194364 871.019087 305.194364 298.491856l581.532128 0L886.726491 871.019087z" p-id="1950"></path></svg>